<svg width="130" height="100" viewBox="0 0 130 100" fill="none" xmlns="http://www.w3.org/2000/svg">
<rect width="100" height="100" fill="black"/>
<path d="M14.895 30.365C15.225 30.8783 15.9033 31.8683 16.93 33.335C17.9933 34.765 19.2033 36.4333 20.56 38.34C21.9533 40.2467 23.42 42.2817 24.96 44.445C26.5 46.5717 27.9483 48.5883 29.305 50.495C30.6617 52.365 31.835 53.9967 32.825 55.39C33.8517 56.7833 34.53 57.7 34.86 58.14C34.97 57.9567 35.3183 57.4617 35.905 56.655C36.4917 55.8483 37.2067 54.84 38.05 53.63C38.93 52.42 39.92 51.0633 41.02 49.56C42.12 48.02 43.2383 46.4617 44.375 44.885C45.5483 43.2717 46.685 41.6767 47.785 40.1C48.9217 38.5233 49.9667 37.0933 50.92 35.81C51.8733 34.49 52.68 33.3533 53.34 32.4C54.0367 31.41 54.5317 30.7317 54.825 30.365V72H48.445V49.67C48.445 49.3767 48.4633 49.065 48.5 48.735C48.5733 48.405 48.61 48.1667 48.61 48.02C48.28 48.46 47.7483 49.2117 47.015 50.275C46.3183 51.3017 45.4933 52.4933 44.54 53.85C43.6233 55.17 42.6517 56.5817 41.625 58.085C40.5983 59.5517 39.6267 60.945 38.71 62.265C37.7933 63.585 36.9867 64.7583 36.29 65.785C35.5933 66.775 35.1167 67.4717 34.86 67.875C34.6033 67.545 34.09 66.8667 33.32 65.84C32.5867 64.7767 31.7067 63.5483 30.68 62.155C29.69 60.7617 28.6267 59.2767 27.49 57.7C26.39 56.1233 25.3633 54.6567 24.41 53.3C23.4567 51.9433 22.6317 50.7883 21.935 49.835C21.2383 48.845 20.835 48.24 20.725 48.02C20.725 48.1667 20.7433 48.405 20.78 48.735C20.8533 49.065 20.89 49.3767 20.89 49.67V72H14.895V30.365ZM64.6313 72V32.125H88.5013V37.68H70.6263V49.725H86.2463V55.335H70.6263V72H64.6313Z" fill="white"/>
</svg>
